#!OML:ASF E:\Style6\Style6.ASF
:FULLY-SPECIFIED
:DEGREES
2913
root 0.623397 17.1989 -1.04291 32.7304 -8.38478 -0.334926
lowerback 32.3102 -1.66473 2.94728
upperback 14.1945 -1.24456 2.29601
thorax -1.43158 -0.630151 1.2577
lowerneck -5.96829 0.0646584 4.01739
upperneck -17.5433 -1.28936 -8.65837
head -4.31603 -0.532872 -3.33849
rclavicle -2.127e-014 -1.40392e-014
rhumerus 36.3456 15.9749 -60.6214
rradius 119.456
rwrist 13.9031
rhand -44.0031 19.7597
rfingers 7.12502
rthumb -16.8242 -9.53139
lclavicle -2.127e-014 -1.40392e-014
lhumerus 35.5709 -19.2367 65.1381
lradius 121.425
lwrist -17.3388
lhand 9.34433 35.3682
lfingers 7.12502
lthumb 34.5042 62.0386
rfemur -62.1079 1.13635 16.9883
rtibia 40.196
rfoot -4.44899 -7.4802
rtoes -13.872
lfemur -59.6375 3.49329 -20.7022
ltibia 44.7809
lfoot -8.78853 11.3407
ltoes -21.9518
2914
root 0.623341 17.1922 -1.04075 32.6624 -8.43329 -0.386064
lowerback 32.4129 -1.70264 2.84819
upperback 14.1389 -1.30989 2.3082
thorax -1.53803 -0.667711 1.3524
lowerneck -5.82679 0.0994696 4.09476
upperneck -18.0326 -1.25588 -8.52008
head -4.48771 -0.51908 -3.3148
rclavicle -3.8763e-015 -4.09372e-014
rhumerus 36.6298 16.3503 -60.1111
rradius 118.989
rwrist 13.9739
rhand -43.468 20.7803
rfingers 7.12502
rthumb -16.309 -8.55387
lclavicle -3.8763e-015 -4.09372e-014
lhumerus 34.8099 -19.3749 65.4182
lradius 122.031
lwrist -16.5974
lhand 11.7482 35.8721
lfingers 7.12502
lthumb 36.7825 61.9925
rfemur -62.0789 1.20986 17.0006
rtibia 40.2836
rfoot -4.51378 -7.4826
rtoes -13.5403
lfemur -59.6064 3.54145 -20.6364
ltibia 44.8978
lfoot -8.7226 11.3454
ltoes -22.4704
2915
root 0.622578 17.1905 -1.03739 32.5883 -8.49452 -0.424756
lowerback 32.4576 -1.71508 2.79732
upperback 14.0983 -1.33777 2.2737
thorax -1.60444 -0.682578 1.35386
lowerneck -5.76889 0.102059 4.23072
upperneck -18.3429 -1.25256 -8.35849
head -4.5935 -0.530556 -3.29096
rclavicle 8.10048e-015 -4.52484e-014
rhumerus 36.7465 16.6172 -59.4349
rradius 118.144
rwrist 14.9557
rhand -42.7832 19.3886
rfingers 7.12502
rthumb -15.6495 -9.99846
lclavicle 8.10048e-015 -4.52484e-014
lhumerus 34.0872 -19.7458 65.6755
lradius 122.91
lwrist -15.341
lhand 12.9221 36.597
lfingers 7.12502
lthumb 37.8923 62.4255
rfemur -62.0237 1.29854 16.9948
rtibia 40.3623
rfoot -4.56371 -7.48733
rtoes -13.6595
lfemur -59.5485 3.58655 -20.5637
ltibia 44.9724
lfoot -8.69145 11.3142
ltoes -23.003
2916
root 0.622236 17.1888 -1.03355 32.4897 -8.53898 -0.47222
lowerback 32.5045 -1.73829 2.82486
upperback 14.0903 -1.36152 2.19673
thorax -1.6363 -0.690111 1.26134
lowerneck -5.69434 0.0691116 4.32543
upperneck -18.7493 -1.2924 -8.12266
head -4.7351 -0.564247 -3.23681
rclavicle -1.36167e-014 3.91357e-016
rhumerus 36.7123 16.8852 -58.8043
rradius 117.33
rwrist 15.8053
rhand -40.8533 15.3642
rfingers 7.12502
rthumb -13.7903 -14.1587
lclavicle -1.36167e-014 3.91357e-016
lhumerus 33.4225 -20.1623 65.8658
lradius 124.026
lwrist -13.8642
lhand 13.1828 37.0889
lfingers 7.12502
lthumb 38.1385 62.8503
rfemur -61.9421 1.37555 17.0093
rtibia 40.4424
rfoot -4.59235 -7.49079
rtoes -13.9275
lfemur -59.4447 3.60621 -20.4573
ltibia 45.0209
lfoot -8.66053 11.3427
ltoes -23.5702
2917
root 0.620618 17.1875 -1.03068 32.4157 -8.58812 -0.453104
lowerback 32.4928 -1.73072 2.84297
upperback 14.1135 -1.35598 2.08579
thorax -1.60811 -0.681702 1.12494
lowerneck -5.64234 0.0199832 4.44769
upperneck -19.2302 -1.35728 -7.87886
head -4.89835 -0.61373 -3.18506
rclavicle -1.99779e-014 -5.75854e-015
rhumerus 36.5024 17.0815 -58.2865
rradius 116.632
rwrist 15.8586
rhand -36.629 11.1588
rfingers 7.12502
rthumb -9.7167 -18.5971
lclavicle -1.99779e-014 -5.75854e-015
lhumerus 32.9765 -20.6781 65.8957
lradius 125.216
lwrist -12.4711
lhand 12.5638 37.0463
lfingers 7.12502
lthumb 37.5537 62.9656
rfemur -61.8891 1.44146 16.9541
rtibia 40.5047
rfoot -4.60372 -7.52903
rtoes -14.4664
lfemur -59.3625 3.64524 -20.4422
ltibia 45.0675
lfoot -8.74409 11.2125
ltoes -23.613
2918
root 0.618334 17.1893 -1.02739 32.2944 -8.62546 -0.442098
lowerback 32.4316 -1.69928 2.9354
upperback 14.1906 -1.3063 1.97611
thorax -1.49687 -0.648367 0.93126
lowerneck -5.49024 -0.0227597 4.74072
upperneck -19.8738 -1.45491 -7.86291
head -5.13135 -0.676686 -3.23614
rclavicle -2.43511e-015 -3.15198e-014
rhumerus 36.1257 17.0457 -57.9077
rradius 115.981
rwrist 15.5311
rhand -30.9454 8.29692
rfingers 7.12502
rthumb -4.23045 -21.6408
lclavicle -2.43511e-015 -3.15198e-014
lhumerus 32.765 -21.4239 65.7502
lradius 126.249
lwrist -11.6152
lhand 10.7095 36.63
lfingers 7.12502
lthumb 35.7989 62.9956
rfemur -61.7557 1.53271 16.891
rtibia 40.5385
rfoot -4.67097 -7.60383
rtoes -14.5029
lfemur -59.2231 3.7118 -20.4336
ltibia 45.1132
lfoot -8.75148 11.0312
ltoes -23.5141
2919
root 0.614934 17.1939 -1.02352 32.1547 -8.71418 -0.43516
lowerback 32.3367 -1.63935 2.93472
upperback 14.2987 -1.24782 1.91719
thorax -1.33256 -0.617011 0.843758
lowerneck -5.34413 -0.0262584 4.88405
upperneck -20.5282 -1.50203 -7.88799
head -5.36406 -0.701895 -3.27677
rclavicle -3.45885e-014 4.76089e-014
rhumerus 35.7772 17.074 -57.5566
rradius 115.487
rwrist 14.4886
rhand -25.4404 6.4489
rfingers 7.12502
rthumb 1.08619 -23.5281
lclavicle -3.45885e-014 4.76089e-014
lhumerus 32.5874 -22.0886 65.7691
lradius 127.058
lwrist -11.4001
lhand 8.6647 35.7631
lfingers 7.12502
lthumb 33.8588 62.5781
rfemur -61.5895 1.71353 16.7729
rtibia 40.5336
rfoot -4.73132 -7.75167
rtoes -13.9841
lfemur -59.0599 3.79263 -20.4341
ltibia 45.1473
lfoot -8.63756 10.9059
ltoes -23.8902
2920
root 0.612576 17.1988 -1.02088 32.0672 -8.72633 -0.440877
lowerback 32.1524 -1.60806 3.04901
upperback 14.3829 -1.1948 1.8705
thorax -1.15819 -0.582821 0.704461
lowerneck -5.16812 -0.0427243 4.93615
upperneck -21.06 -1.55271 -7.89068
head -5.56441 -0.723376 -3.29298
rclavicle 1.36167e-014 -1.8313e-014
rhumerus 35.3389 17.2724 -57.2685
rradius 114.964
rwrist 12.2158
rhand -21.6289 5.11873
rfingers 7.12502
rthumb 4.76712 -24.8076
lclavicle 1.36167e-014 -1.8313e-014
lhumerus 32.4468 -22.6937 65.8726
lradius 127.63
lwrist -11.4646
lhand 6.65047 34.4577
lfingers 7.12502
lthumb 31.9429 61.6751
rfemur -61.4643 1.84546 16.6889
rtibia 40.5
rfoot -4.77788 -7.9051
rtoes -13.4691
lfemur -58.9483 3.7904 -20.3606
ltibia 45.1491
lfoot -8.59132 10.793
ltoes -24.0149
2921
root 0.609982 17.2049 -1.01809 31.9708 -8.71256 -0.414241
lowerback 31.9194 -1.58855 3.17376
upperback 14.4533 -1.15488 1.81748
thorax -0.978878 -0.553327 0.555964
lowerneck -4.94811 -0.0377783 4.98412
upperneck -21.4829 -1.57873 -7.98551
head -5.73649 -0.725391 -3.33765
rclavicle -6.36111e-015 7.67806e-015
rhumerus 34.8231 17.5929 -57.0299
rradius 114.26
rwrist 9.78215
rhand -19.9651 5.04914
rfingers 7.12502
rthumb 6.37354 -24.835
lclavicle -6.36111e-015 7.67806e-015
lhumerus 32.2329 -23.2413 65.9476
lradius 127.943
lwrist -11.7071
lhand 4.28173 32.7407
lfingers 7.12502
lthumb 29.6846 60.3847
rfemur -61.3197 1.91425 16.6214
rtibia 40.4544
rfoot -4.80672 -8.03042
rtoes -13.7082
lfemur -58.8262 3.76267 -20.3058
ltibia 45.1269
lfoot -8.54974 10.6812
ltoes -24.0575
